<?xml version="1.0" encoding="UTF-8"?>
<svg id="Layer_2" data-name="Layer 2" xmlns="http://www.w3.org/2000/svg" xmlns:xlink="http://www.w3.org/1999/xlink" viewBox="0 0 553.92 83.4">
  <defs>
    <style>
      .cls-1 {
        fill: url(#linear-gradient-2);
      }

      .cls-2 {
        fill: #fff;
      }

      .cls-3 {
        fill: url(#linear-gradient-6);
      }

      .cls-4 {
        fill: url(#linear-gradient-5);
      }

      .cls-5 {
        fill: url(#linear-gradient-7);
      }

      .cls-6 {
        fill: url(#linear-gradient-3);
      }

      .cls-7 {
        fill: url(#linear-gradient);
      }

      .cls-8 {
        fill: url(#linear-gradient-4);
      }
    </style>
    <linearGradient id="linear-gradient" x1="84.9" y1="83.96" x2="37.29" y2="71.23" gradientUnits="userSpaceOnUse">
      <stop offset="0" stop-color="#006671"/>
      <stop offset="1" stop-color="#00a0b0"/>
    </linearGradient>
    <linearGradient id="linear-gradient-2" x1="67.49" y1="11.54" x2="63.68" y2="61.19" xlink:href="#linear-gradient"/>
    <linearGradient id="linear-gradient-3" x1="-12.72" y1="57.57" x2="11.72" y2="39.5" xlink:href="#linear-gradient"/>
    <linearGradient id="linear-gradient-4" x1="705.6" y1="40.87" x2="347.97" y2="40.87" xlink:href="#linear-gradient"/>
    <linearGradient id="linear-gradient-5" x1="705.66" y1="40.87" x2="347.97" y2="40.87" xlink:href="#linear-gradient"/>
    <linearGradient id="linear-gradient-6" x1="705.61" y1="41.7" x2="347.98" y2="41.7" xlink:href="#linear-gradient"/>
    <linearGradient id="linear-gradient-7" x1="705.63" y1="40.87" x2="347.98" y2="40.87" xlink:href="#linear-gradient"/>
  </defs>
  <g id="Layer_1-2" data-name="Layer 1">
    <g>
      <g>
        <path class="cls-7" d="M4.09,73.84l19.91-11.5c5.71-3.3,12.21-5.04,18.8-5.04s13.09,1.74,18.8,5.04l19.87,11.48-16.41,9.47-11.38-6.57c-3.3-1.91-7.07-2.92-10.88-2.92s-7.58,1.01-10.88,2.91l-11.58,6.68-16.25-9.56Z"/>
        <path class="cls-1" d="M65.24,55.52c-11.59-6.69-18.8-19.17-18.8-32.56V.02s16.4,9.47,16.4,9.47v13.14c0,7.75,4.17,14.97,10.88,18.85l11.58,6.69-.16,18.85-19.91-11.5Z"/>
        <path class="cls-6" d="M.03,48.04l11.39-6.56c6.71-3.87,10.89-11.08,10.9-18.83l.02-13.37L38.75,0l-.03,23c-.02,13.39-7.23,25.85-18.84,32.53L0,66.98l.03-18.94Z"/>
      </g>
      <g>
        <path class="cls-2" d="M160.57,24.76V14.27h-53.81v53.2h12.16v-19.91h35.12v-10.49h-35.12v-12.31h41.65Z"/>
        <path class="cls-2" d="M175.62,14.27v53.2h12.16V14.27h-12.16Z"/>
        <path class="cls-2" d="M256.8,14.27V50.75L220.92,14.27h-12.92v53.2h11.78V29.01l38.16,38.46h10.64V14.27h-11.78Z"/>
        <path class="cls-8" d="M342.61,24.76V14.27h-53.81v53.2h12.16v-19.91h35.12v-10.49h-35.12v-12.31h41.65Z"/>
        <path class="cls-4" d="M369.82,56.98V14.27h-12.16v53.2h49.79v-10.49h-37.63Z"/>
        <path class="cls-3" d="M466.05,14.27v27.21c0,5.37-1.53,9.55-4.6,12.54-3.06,2.99-7.43,4.48-13.11,4.48s-10.04-1.49-13.11-4.48c-3.07-2.99-4.6-7.17-4.6-12.54V14.27h-12.16v28.12c0,3.95,.66,7.58,1.98,10.87,1.31,3.29,3.24,6.13,5.77,8.51,2.54,2.38,5.69,4.21,9.47,5.47,3.77,1.27,7.99,1.9,12.65,1.9s8.88-.63,12.66-1.9c3.77-1.26,6.93-3.09,9.46-5.47,2.53-2.38,4.46-5.22,5.78-8.51,1.32-3.29,1.97-6.92,1.97-10.87V14.27h-12.16Z"/>
        <path class="cls-5" d="M522.6,32.66l-16.79-18.39h-14.9l24.02,26.3-24.4,26.9h14.14l17.17-18.85,17.18,18.85h14.9l-31.32-34.81Zm30.86-18.39h-14.21l-13.39,14.79,7.13,7.49,20.47-22.27Z"/>
      </g>
    </g>
  </g>
</svg>